<mxfile host="65bd71144e">
    <diagram id="C5RBs43oDa-KdzZeNtuy" name="Page-1">
        <mxGraphModel dx="521" dy="329" grid="1" gridSize="10" guides="1" tooltips="1" connect="1" arrows="1" fold="1" page="1" pageScale="1" pageWidth="827" pageHeight="1169" background="none" math="0" shadow="0">
            <root>
                <mxCell id="WIyWlLk6GJQsqaUBKTNV-0"/>
                <mxCell id="WIyWlLk6GJQsqaUBKTNV-1" parent="WIyWlLk6GJQsqaUBKTNV-0"/>
                <mxCell id="4PX8sGZh6ZXdaeZX1pjj-25" value="" style="whiteSpace=wrap;html=1;aspect=fixed;fontSize=5;opacity=80;strokeWidth=2;fillColor=#CCFFFF;sketch=1;glass=0;" parent="WIyWlLk6GJQsqaUBKTNV-1" vertex="1">
                    <mxGeometry x="210" y="700" width="360" height="360" as="geometry"/>
                </mxCell>
                <mxCell id="WIyWlLk6GJQsqaUBKTNV-2" value="" style="rounded=0;html=1;jettySize=auto;orthogonalLoop=1;fontSize=11;endArrow=block;endFill=0;endSize=8;strokeWidth=1;shadow=0;labelBackgroundColor=none;edgeStyle=orthogonalEdgeStyle;" parent="WIyWlLk6GJQsqaUBKTNV-1" source="WIyWlLk6GJQsqaUBKTNV-3" target="WIyWlLk6GJQsqaUBKTNV-6" edge="1">
                    <mxGeometry relative="1" as="geometry"/>
                </mxCell>
                <mxCell id="WIyWlLk6GJQsqaUBKTNV-3" value="Start&lt;br&gt;Index (Homepage)" style="rounded=1;whiteSpace=wrap;html=1;fontSize=12;glass=0;strokeWidth=1;shadow=0;" parent="WIyWlLk6GJQsqaUBKTNV-1" vertex="1">
                    <mxGeometry x="160" y="80" width="120" height="40" as="geometry"/>
                </mxCell>
                <mxCell id="WIyWlLk6GJQsqaUBKTNV-4" value="2" style="rounded=0;html=1;jettySize=auto;orthogonalLoop=1;fontSize=11;endArrow=block;endFill=0;endSize=8;strokeWidth=1;shadow=0;labelBackgroundColor=none;edgeStyle=orthogonalEdgeStyle;entryX=0.5;entryY=0;entryDx=0;entryDy=0;" parent="WIyWlLk6GJQsqaUBKTNV-1" source="WIyWlLk6GJQsqaUBKTNV-6" target="4PX8sGZh6ZXdaeZX1pjj-4" edge="1">
                    <mxGeometry y="20" relative="1" as="geometry">
                        <mxPoint as="offset"/>
                        <mxPoint x="220" y="290" as="targetPoint"/>
                    </mxGeometry>
                </mxCell>
                <mxCell id="WIyWlLk6GJQsqaUBKTNV-5" value="1" style="edgeStyle=orthogonalEdgeStyle;rounded=0;html=1;jettySize=auto;orthogonalLoop=1;fontSize=11;endArrow=block;endFill=0;endSize=8;strokeWidth=1;shadow=0;labelBackgroundColor=none;entryX=0;entryY=0.5;entryDx=0;entryDy=0;" parent="WIyWlLk6GJQsqaUBKTNV-1" source="WIyWlLk6GJQsqaUBKTNV-6" target="4PX8sGZh6ZXdaeZX1pjj-2" edge="1">
                    <mxGeometry y="10" relative="1" as="geometry">
                        <mxPoint as="offset"/>
                        <mxPoint x="350.0000000000001" y="210" as="targetPoint"/>
                    </mxGeometry>
                </mxCell>
                <mxCell id="WIyWlLk6GJQsqaUBKTNV-6" value="Number of Players?" style="rhombus;whiteSpace=wrap;html=1;shadow=0;fontFamily=Helvetica;fontSize=12;align=center;strokeWidth=1;spacing=6;spacingTop=-4;" parent="WIyWlLk6GJQsqaUBKTNV-1" vertex="1">
                    <mxGeometry x="170" y="170" width="100" height="80" as="geometry"/>
                </mxCell>
                <mxCell id="4PX8sGZh6ZXdaeZX1pjj-8" style="edgeStyle=orthogonalEdgeStyle;rounded=0;orthogonalLoop=1;jettySize=auto;html=1;entryX=0;entryY=0.5;entryDx=0;entryDy=0;" parent="WIyWlLk6GJQsqaUBKTNV-1" source="WIyWlLk6GJQsqaUBKTNV-12" target="4PX8sGZh6ZXdaeZX1pjj-7" edge="1">
                    <mxGeometry relative="1" as="geometry"/>
                </mxCell>
                <mxCell id="SA4uv84_RfWoKcKe5siB-1" value="&lt;font style=&quot;font-size: 6px&quot;&gt;RESET&lt;br&gt;BUTTON&lt;/font&gt;" style="edgeLabel;html=1;align=center;verticalAlign=middle;resizable=0;points=[];" parent="4PX8sGZh6ZXdaeZX1pjj-8" vertex="1" connectable="0">
                    <mxGeometry x="-0.2457" y="1" relative="1" as="geometry">
                        <mxPoint as="offset"/>
                    </mxGeometry>
                </mxCell>
                <mxCell id="4PX8sGZh6ZXdaeZX1pjj-11" style="edgeStyle=orthogonalEdgeStyle;rounded=0;orthogonalLoop=1;jettySize=auto;html=1;entryX=0.5;entryY=0;entryDx=0;entryDy=0;" parent="WIyWlLk6GJQsqaUBKTNV-1" source="WIyWlLk6GJQsqaUBKTNV-12" target="4PX8sGZh6ZXdaeZX1pjj-6" edge="1">
                    <mxGeometry relative="1" as="geometry"/>
                </mxCell>
                <mxCell id="4PX8sGZh6ZXdaeZX1pjj-12" value="POST names handle in controller" style="edgeLabel;html=1;align=center;verticalAlign=middle;resizable=0;points=[];" parent="4PX8sGZh6ZXdaeZX1pjj-11" vertex="1" connectable="0">
                    <mxGeometry x="-0.3183" y="-1" relative="1" as="geometry">
                        <mxPoint x="1" y="3" as="offset"/>
                    </mxGeometry>
                </mxCell>
                <mxCell id="WIyWlLk6GJQsqaUBKTNV-12" value="Player Name Entry Screen" style="rounded=1;whiteSpace=wrap;html=1;fontSize=12;glass=0;strokeWidth=1;shadow=0;" parent="WIyWlLk6GJQsqaUBKTNV-1" vertex="1">
                    <mxGeometry x="340" y="310" width="100" height="40" as="geometry"/>
                </mxCell>
                <mxCell id="4PX8sGZh6ZXdaeZX1pjj-1" style="edgeStyle=orthogonalEdgeStyle;rounded=0;orthogonalLoop=1;jettySize=auto;html=1;exitX=0.5;exitY=1;exitDx=0;exitDy=0;entryX=0.5;entryY=0;entryDx=0;entryDy=0;" parent="WIyWlLk6GJQsqaUBKTNV-1" source="4PX8sGZh6ZXdaeZX1pjj-2" target="WIyWlLk6GJQsqaUBKTNV-12" edge="1">
                    <mxGeometry relative="1" as="geometry">
                        <mxPoint x="400.0000000000001" y="250" as="sourcePoint"/>
                    </mxGeometry>
                </mxCell>
                <mxCell id="4PX8sGZh6ZXdaeZX1pjj-2" value="Only load one form for name" style="rounded=1;whiteSpace=wrap;html=1;fontSize=12;glass=0;strokeWidth=1;shadow=0;" parent="WIyWlLk6GJQsqaUBKTNV-1" vertex="1">
                    <mxGeometry x="330" y="190" width="120" height="40" as="geometry"/>
                </mxCell>
                <mxCell id="4PX8sGZh6ZXdaeZX1pjj-5" style="edgeStyle=orthogonalEdgeStyle;rounded=0;orthogonalLoop=1;jettySize=auto;html=1;exitX=1;exitY=0.5;exitDx=0;exitDy=0;entryX=0;entryY=0.5;entryDx=0;entryDy=0;" parent="WIyWlLk6GJQsqaUBKTNV-1" source="4PX8sGZh6ZXdaeZX1pjj-4" target="WIyWlLk6GJQsqaUBKTNV-12" edge="1">
                    <mxGeometry relative="1" as="geometry"/>
                </mxCell>
                <mxCell id="4PX8sGZh6ZXdaeZX1pjj-4" value="Load two forms for names" style="rounded=1;whiteSpace=wrap;html=1;fontSize=12;glass=0;strokeWidth=1;shadow=0;" parent="WIyWlLk6GJQsqaUBKTNV-1" vertex="1">
                    <mxGeometry x="140" y="310" width="120" height="40" as="geometry"/>
                </mxCell>
                <mxCell id="4PX8sGZh6ZXdaeZX1pjj-14" style="edgeStyle=orthogonalEdgeStyle;rounded=0;orthogonalLoop=1;jettySize=auto;html=1;entryX=0.5;entryY=0;entryDx=0;entryDy=0;" parent="WIyWlLk6GJQsqaUBKTNV-1" source="4PX8sGZh6ZXdaeZX1pjj-6" target="4PX8sGZh6ZXdaeZX1pjj-17" edge="1">
                    <mxGeometry relative="1" as="geometry">
                        <mxPoint x="390" y="510" as="targetPoint"/>
                    </mxGeometry>
                </mxCell>
                <mxCell id="4PX8sGZh6ZXdaeZX1pjj-6" value="Welcome Screen&lt;br&gt;(use params for player names)" style="rounded=1;whiteSpace=wrap;html=1;" parent="WIyWlLk6GJQsqaUBKTNV-1" vertex="1">
                    <mxGeometry x="330" y="400" width="120" height="60" as="geometry"/>
                </mxCell>
                <mxCell id="4PX8sGZh6ZXdaeZX1pjj-10" style="edgeStyle=orthogonalEdgeStyle;rounded=0;orthogonalLoop=1;jettySize=auto;html=1;entryX=1;entryY=0.5;entryDx=0;entryDy=0;" parent="WIyWlLk6GJQsqaUBKTNV-1" source="4PX8sGZh6ZXdaeZX1pjj-7" target="WIyWlLk6GJQsqaUBKTNV-3" edge="1">
                    <mxGeometry relative="1" as="geometry">
                        <Array as="points">
                            <mxPoint x="530" y="100"/>
                        </Array>
                    </mxGeometry>
                </mxCell>
                <mxCell id="4PX8sGZh6ZXdaeZX1pjj-13" value="GET back to '/'&lt;br&gt;wipe saved data?" style="edgeLabel;html=1;align=center;verticalAlign=middle;resizable=0;points=[];" parent="4PX8sGZh6ZXdaeZX1pjj-10" vertex="1" connectable="0">
                    <mxGeometry x="-0.4826" y="2" relative="1" as="geometry">
                        <mxPoint as="offset"/>
                    </mxGeometry>
                </mxCell>
                <mxCell id="4PX8sGZh6ZXdaeZX1pjj-7" value="Reset?" style="rhombus;whiteSpace=wrap;html=1;" parent="WIyWlLk6GJQsqaUBKTNV-1" vertex="1">
                    <mxGeometry x="490" y="290" width="80" height="80" as="geometry"/>
                </mxCell>
                <mxCell id="4PX8sGZh6ZXdaeZX1pjj-16" style="edgeStyle=orthogonalEdgeStyle;rounded=0;orthogonalLoop=1;jettySize=auto;html=1;entryX=0;entryY=0.5;entryDx=0;entryDy=0;" parent="WIyWlLk6GJQsqaUBKTNV-1" source="4PX8sGZh6ZXdaeZX1pjj-15" target="4PX8sGZh6ZXdaeZX1pjj-6" edge="1">
                    <mxGeometry relative="1" as="geometry"/>
                </mxCell>
                <mxCell id="4PX8sGZh6ZXdaeZX1pjj-15" value="&lt;font style=&quot;font-size: 5px&quot;&gt;Not my problem if they can't spell their own name&lt;/font&gt;" style="ellipse;whiteSpace=wrap;html=1;" parent="WIyWlLk6GJQsqaUBKTNV-1" vertex="1">
                    <mxGeometry x="240" y="405" width="60" height="50" as="geometry"/>
                </mxCell>
                <mxCell id="4PX8sGZh6ZXdaeZX1pjj-19" value="Yes" style="edgeStyle=orthogonalEdgeStyle;rounded=0;orthogonalLoop=1;jettySize=auto;html=1;fontSize=7;entryX=0;entryY=0.5;entryDx=0;entryDy=0;" parent="WIyWlLk6GJQsqaUBKTNV-1" source="4PX8sGZh6ZXdaeZX1pjj-17" target="4PX8sGZh6ZXdaeZX1pjj-20" edge="1">
                    <mxGeometry relative="1" as="geometry">
                        <mxPoint x="490" y="540" as="targetPoint"/>
                    </mxGeometry>
                </mxCell>
                <mxCell id="4PX8sGZh6ZXdaeZX1pjj-21" style="edgeStyle=orthogonalEdgeStyle;rounded=0;orthogonalLoop=1;jettySize=auto;html=1;exitX=0.5;exitY=1;exitDx=0;exitDy=0;fontSize=12;entryX=0.5;entryY=0;entryDx=0;entryDy=0;" parent="WIyWlLk6GJQsqaUBKTNV-1" source="4PX8sGZh6ZXdaeZX1pjj-17" target="4PX8sGZh6ZXdaeZX1pjj-23" edge="1">
                    <mxGeometry relative="1" as="geometry">
                        <mxPoint x="390.0000000000001" y="620" as="targetPoint"/>
                    </mxGeometry>
                </mxCell>
                <mxCell id="4PX8sGZh6ZXdaeZX1pjj-22" value="No" style="edgeLabel;html=1;align=center;verticalAlign=middle;resizable=0;points=[];fontSize=12;" parent="4PX8sGZh6ZXdaeZX1pjj-21" vertex="1" connectable="0">
                    <mxGeometry x="-0.2139" y="1" relative="1" as="geometry">
                        <mxPoint as="offset"/>
                    </mxGeometry>
                </mxCell>
                <mxCell id="4PX8sGZh6ZXdaeZX1pjj-17" value="&lt;font style=&quot;font-size: 7px&quot;&gt;Do you need a recap of the rules?&lt;/font&gt;" style="rhombus;whiteSpace=wrap;html=1;" parent="WIyWlLk6GJQsqaUBKTNV-1" vertex="1">
                    <mxGeometry x="356.25" y="510" width="67.5" height="60" as="geometry"/>
                </mxCell>
                <mxCell id="4PX8sGZh6ZXdaeZX1pjj-24" style="edgeStyle=orthogonalEdgeStyle;rounded=0;orthogonalLoop=1;jettySize=auto;html=1;entryX=1;entryY=0.6;entryDx=0;entryDy=0;entryPerimeter=0;fontSize=12;" parent="WIyWlLk6GJQsqaUBKTNV-1" source="4PX8sGZh6ZXdaeZX1pjj-20" target="4PX8sGZh6ZXdaeZX1pjj-23" edge="1">
                    <mxGeometry relative="1" as="geometry">
                        <Array as="points">
                            <mxPoint x="550" y="650"/>
                        </Array>
                    </mxGeometry>
                </mxCell>
                <mxCell id="SA4uv84_RfWoKcKe5siB-0" value="OK" style="edgeLabel;html=1;align=center;verticalAlign=middle;resizable=0;points=[];" parent="4PX8sGZh6ZXdaeZX1pjj-24" vertex="1" connectable="0">
                    <mxGeometry x="-0.5604" y="1" relative="1" as="geometry">
                        <mxPoint as="offset"/>
                    </mxGeometry>
                </mxCell>
                <mxCell id="4PX8sGZh6ZXdaeZX1pjj-20" value="&lt;font style=&quot;font-size: 9px&quot;&gt;Rules Screen&lt;br&gt;- summary of the game&lt;br&gt;- could include pictures&lt;br&gt;- Different for number of players?&lt;br&gt;- refer to player names?&lt;br&gt;&lt;/font&gt;" style="rounded=1;whiteSpace=wrap;html=1;fontSize=7;" parent="WIyWlLk6GJQsqaUBKTNV-1" vertex="1">
                    <mxGeometry x="490" y="495" width="120" height="90" as="geometry"/>
                </mxCell>
                <mxCell id="4PX8sGZh6ZXdaeZX1pjj-51" style="edgeStyle=orthogonalEdgeStyle;rounded=0;orthogonalLoop=1;jettySize=auto;html=1;entryX=0.5;entryY=0;entryDx=0;entryDy=0;fontSize=5;" parent="WIyWlLk6GJQsqaUBKTNV-1" source="4PX8sGZh6ZXdaeZX1pjj-23" target="4PX8sGZh6ZXdaeZX1pjj-25" edge="1">
                    <mxGeometry relative="1" as="geometry"/>
                </mxCell>
                <mxCell id="4PX8sGZh6ZXdaeZX1pjj-23" value="&lt;font style=&quot;font-size: 12px&quot;&gt;Game?&lt;/font&gt;" style="rounded=1;whiteSpace=wrap;html=1;fontSize=7;" parent="WIyWlLk6GJQsqaUBKTNV-1" vertex="1">
                    <mxGeometry x="350" y="620" width="80" height="50" as="geometry"/>
                </mxCell>
                <mxCell id="4PX8sGZh6ZXdaeZX1pjj-29" style="edgeStyle=orthogonalEdgeStyle;rounded=0;orthogonalLoop=1;jettySize=auto;html=1;exitX=1;exitY=0.5;exitDx=0;exitDy=0;entryX=0.25;entryY=0;entryDx=0;entryDy=0;fontSize=5;" parent="WIyWlLk6GJQsqaUBKTNV-1" source="4PX8sGZh6ZXdaeZX1pjj-26" target="4PX8sGZh6ZXdaeZX1pjj-28" edge="1">
                    <mxGeometry relative="1" as="geometry"/>
                </mxCell>
                <mxCell id="4PX8sGZh6ZXdaeZX1pjj-26" value="Player 1 makes a choice" style="rounded=1;whiteSpace=wrap;html=1;glass=0;sketch=0;fontSize=5;strokeWidth=2;fillColor=none;opacity=80;strokeColor=default;" parent="WIyWlLk6GJQsqaUBKTNV-1" vertex="1">
                    <mxGeometry x="270" y="730" width="70" height="30" as="geometry"/>
                </mxCell>
                <mxCell id="4PX8sGZh6ZXdaeZX1pjj-30" style="edgeStyle=orthogonalEdgeStyle;rounded=0;orthogonalLoop=1;jettySize=auto;html=1;exitX=0;exitY=0.5;exitDx=0;exitDy=0;entryX=0.75;entryY=0;entryDx=0;entryDy=0;fontSize=5;" parent="WIyWlLk6GJQsqaUBKTNV-1" source="4PX8sGZh6ZXdaeZX1pjj-27" target="4PX8sGZh6ZXdaeZX1pjj-28" edge="1">
                    <mxGeometry relative="1" as="geometry"/>
                </mxCell>
                <mxCell id="4PX8sGZh6ZXdaeZX1pjj-27" value="Player 2 or Computer makes a choice" style="rounded=1;whiteSpace=wrap;html=1;glass=0;sketch=0;fontSize=5;strokeWidth=2;fillColor=none;opacity=80;strokeColor=default;" parent="WIyWlLk6GJQsqaUBKTNV-1" vertex="1">
                    <mxGeometry x="440" y="730" width="80" height="30" as="geometry"/>
                </mxCell>
                <mxCell id="4PX8sGZh6ZXdaeZX1pjj-36" style="edgeStyle=orthogonalEdgeStyle;rounded=0;orthogonalLoop=1;jettySize=auto;html=1;exitX=0.75;exitY=1;exitDx=0;exitDy=0;entryX=0.5;entryY=0;entryDx=0;entryDy=0;fontSize=5;" parent="WIyWlLk6GJQsqaUBKTNV-1" source="4PX8sGZh6ZXdaeZX1pjj-28" target="4PX8sGZh6ZXdaeZX1pjj-34" edge="1">
                    <mxGeometry relative="1" as="geometry"/>
                </mxCell>
                <mxCell id="4PX8sGZh6ZXdaeZX1pjj-37" style="edgeStyle=orthogonalEdgeStyle;rounded=0;orthogonalLoop=1;jettySize=auto;html=1;exitX=0.5;exitY=1;exitDx=0;exitDy=0;entryX=0.5;entryY=0;entryDx=0;entryDy=0;fontSize=5;" parent="WIyWlLk6GJQsqaUBKTNV-1" source="4PX8sGZh6ZXdaeZX1pjj-28" target="4PX8sGZh6ZXdaeZX1pjj-33" edge="1">
                    <mxGeometry relative="1" as="geometry"/>
                </mxCell>
                <mxCell id="4PX8sGZh6ZXdaeZX1pjj-38" style="edgeStyle=orthogonalEdgeStyle;rounded=0;orthogonalLoop=1;jettySize=auto;html=1;exitX=0.25;exitY=1;exitDx=0;exitDy=0;entryX=0.5;entryY=0;entryDx=0;entryDy=0;fontSize=5;" parent="WIyWlLk6GJQsqaUBKTNV-1" source="4PX8sGZh6ZXdaeZX1pjj-28" target="4PX8sGZh6ZXdaeZX1pjj-32" edge="1">
                    <mxGeometry relative="1" as="geometry"/>
                </mxCell>
                <mxCell id="4PX8sGZh6ZXdaeZX1pjj-28" value="Choices are compared" style="rounded=1;whiteSpace=wrap;html=1;glass=0;sketch=0;fontSize=5;strokeWidth=2;fillColor=none;opacity=80;strokeColor=default;" parent="WIyWlLk6GJQsqaUBKTNV-1" vertex="1">
                    <mxGeometry x="356.25" y="780" width="70" height="30" as="geometry"/>
                </mxCell>
                <mxCell id="4PX8sGZh6ZXdaeZX1pjj-44" style="edgeStyle=orthogonalEdgeStyle;rounded=0;orthogonalLoop=1;jettySize=auto;html=1;exitX=0.5;exitY=1;exitDx=0;exitDy=0;entryX=0.5;entryY=0;entryDx=0;entryDy=0;fontSize=5;" parent="WIyWlLk6GJQsqaUBKTNV-1" source="4PX8sGZh6ZXdaeZX1pjj-32" target="4PX8sGZh6ZXdaeZX1pjj-43" edge="1">
                    <mxGeometry relative="1" as="geometry"/>
                </mxCell>
                <mxCell id="4PX8sGZh6ZXdaeZX1pjj-32" value="Player 1 Wins" style="rounded=1;whiteSpace=wrap;html=1;glass=0;sketch=0;fontSize=5;strokeWidth=2;fillColor=none;opacity=80;strokeColor=default;" parent="WIyWlLk6GJQsqaUBKTNV-1" vertex="1">
                    <mxGeometry x="260" y="840" width="70" height="30" as="geometry"/>
                </mxCell>
                <mxCell id="4PX8sGZh6ZXdaeZX1pjj-41" style="edgeStyle=orthogonalEdgeStyle;rounded=0;orthogonalLoop=1;jettySize=auto;html=1;exitX=0.5;exitY=1;exitDx=0;exitDy=0;entryX=0.5;entryY=0;entryDx=0;entryDy=0;fontSize=5;" parent="WIyWlLk6GJQsqaUBKTNV-1" source="4PX8sGZh6ZXdaeZX1pjj-33" target="4PX8sGZh6ZXdaeZX1pjj-40" edge="1">
                    <mxGeometry relative="1" as="geometry"/>
                </mxCell>
                <mxCell id="4PX8sGZh6ZXdaeZX1pjj-33" value="A Draw Occurs" style="rounded=1;whiteSpace=wrap;html=1;glass=0;sketch=0;fontSize=5;strokeWidth=2;fillColor=none;opacity=80;strokeColor=default;" parent="WIyWlLk6GJQsqaUBKTNV-1" vertex="1">
                    <mxGeometry x="356.25" y="860" width="70" height="30" as="geometry"/>
                </mxCell>
                <mxCell id="4PX8sGZh6ZXdaeZX1pjj-45" style="edgeStyle=orthogonalEdgeStyle;rounded=0;orthogonalLoop=1;jettySize=auto;html=1;exitX=0.25;exitY=1;exitDx=0;exitDy=0;entryX=0.75;entryY=0;entryDx=0;entryDy=0;fontSize=5;" parent="WIyWlLk6GJQsqaUBKTNV-1" source="4PX8sGZh6ZXdaeZX1pjj-34" target="4PX8sGZh6ZXdaeZX1pjj-43" edge="1">
                    <mxGeometry relative="1" as="geometry">
                        <Array as="points">
                            <mxPoint x="477" y="970"/>
                            <mxPoint x="313" y="970"/>
                        </Array>
                    </mxGeometry>
                </mxCell>
                <mxCell id="4PX8sGZh6ZXdaeZX1pjj-46" value="Player 2" style="edgeLabel;html=1;align=center;verticalAlign=middle;resizable=0;points=[];fontSize=5;" parent="4PX8sGZh6ZXdaeZX1pjj-45" vertex="1" connectable="0">
                    <mxGeometry x="-0.5467" y="1" relative="1" as="geometry">
                        <mxPoint as="offset"/>
                    </mxGeometry>
                </mxCell>
                <mxCell id="4PX8sGZh6ZXdaeZX1pjj-48" style="edgeStyle=orthogonalEdgeStyle;rounded=0;orthogonalLoop=1;jettySize=auto;html=1;exitX=0.75;exitY=1;exitDx=0;exitDy=0;entryX=0.5;entryY=0;entryDx=0;entryDy=0;fontSize=5;" parent="WIyWlLk6GJQsqaUBKTNV-1" source="4PX8sGZh6ZXdaeZX1pjj-34" target="4PX8sGZh6ZXdaeZX1pjj-47" edge="1">
                    <mxGeometry relative="1" as="geometry"/>
                </mxCell>
                <mxCell id="4PX8sGZh6ZXdaeZX1pjj-49" value="Computer" style="edgeLabel;html=1;align=center;verticalAlign=middle;resizable=0;points=[];fontSize=5;" parent="4PX8sGZh6ZXdaeZX1pjj-48" vertex="1" connectable="0">
                    <mxGeometry x="-0.1737" relative="1" as="geometry">
                        <mxPoint as="offset"/>
                    </mxGeometry>
                </mxCell>
                <mxCell id="4PX8sGZh6ZXdaeZX1pjj-34" value="Player 2 Wins&lt;br&gt;(Computer or Real Player)" style="rounded=1;whiteSpace=wrap;html=1;glass=0;sketch=0;fontSize=5;strokeWidth=2;fillColor=none;opacity=80;strokeColor=default;" parent="WIyWlLk6GJQsqaUBKTNV-1" vertex="1">
                    <mxGeometry x="460" y="840" width="70" height="30" as="geometry"/>
                </mxCell>
                <mxCell id="4PX8sGZh6ZXdaeZX1pjj-40" value="Automatic restart?" style="rounded=1;whiteSpace=wrap;html=1;glass=0;sketch=0;fontSize=5;strokeWidth=2;fillColor=none;opacity=80;strokeColor=default;" parent="WIyWlLk6GJQsqaUBKTNV-1" vertex="1">
                    <mxGeometry x="356.25" y="920" width="70" height="30" as="geometry"/>
                </mxCell>
                <mxCell id="4PX8sGZh6ZXdaeZX1pjj-43" value="Congratulations Page" style="rounded=1;whiteSpace=wrap;html=1;glass=0;sketch=0;fontSize=5;strokeWidth=2;fillColor=none;opacity=80;strokeColor=default;" parent="WIyWlLk6GJQsqaUBKTNV-1" vertex="1">
                    <mxGeometry x="260" y="990" width="70" height="30" as="geometry"/>
                </mxCell>
                <mxCell id="4PX8sGZh6ZXdaeZX1pjj-50" style="edgeStyle=orthogonalEdgeStyle;rounded=0;orthogonalLoop=1;jettySize=auto;html=1;entryX=0.75;entryY=0;entryDx=0;entryDy=0;fontSize=5;dashed=1;" parent="WIyWlLk6GJQsqaUBKTNV-1" source="4PX8sGZh6ZXdaeZX1pjj-47" target="4PX8sGZh6ZXdaeZX1pjj-40" edge="1">
                    <mxGeometry relative="1" as="geometry"/>
                </mxCell>
                <mxCell id="4PX8sGZh6ZXdaeZX1pjj-47" value="You Lost Page 😩" style="rounded=1;whiteSpace=wrap;html=1;glass=0;sketch=0;fontSize=5;strokeWidth=2;fillColor=none;opacity=80;strokeColor=default;" parent="WIyWlLk6GJQsqaUBKTNV-1" vertex="1">
                    <mxGeometry x="480" y="1000" width="70" height="30" as="geometry"/>
                </mxCell>
            </root>
        </mxGraphModel>
    </diagram>
</mxfile>